<?xml version="1.0" standalone="no"?>
<!DOCTYPE svg PUBLIC "-//W3C//DTD SVG 20010904//EN"
 "http://www.w3.org/TR/2001/REC-SVG-20010904/DTD/svg10.dtd">
<svg version="1.0" xmlns="http://www.w3.org/2000/svg"
 width="1546.000000pt" height="1546.000000pt" viewBox="0 0 1546.000000 1546.000000"
 preserveAspectRatio="xMidYMid meet">
<metadata>
Created by potrace 1.11, written by Peter Selinger 2001-2013
</metadata>
<g transform="translate(0.000000,1546.000000) scale(0.100000,-0.100000)"
fill="#000000" stroke="none">
<path d="M7379 15455 c-2 -1 -64 -6 -137 -10 -74 -3 -141 -8 -150 -9 -9 -2
-57 -7 -107 -11 -49 -4 -99 -9 -110 -10 -11 -2 -47 -6 -80 -10 -33 -3 -85 -10
-115 -15 -30 -6 -75 -12 -100 -15 -25 -2 -94 -13 -155 -24 -60 -11 -127 -22
-147 -25 -21 -3 -59 -11 -85 -17 -27 -6 -57 -12 -68 -15 -11 -2 -31 -6 -45 -9
-14 -3 -34 -7 -45 -9 -416 -86 -1076 -309 -1535 -520 -276 -127 -677 -344
-863 -468 -32 -21 -60 -38 -62 -38 -5 0 -227 -149 -325 -219 -55 -39 -282
-209 -330 -248 -225 -180 -452 -385 -655 -588 -157 -157 -206 -209 -334 -353
-69 -78 -208 -245 -256 -306 -16 -21 -35 -44 -40 -50 -17 -18 -176 -233 -252
-341 -130 -186 -282 -429 -435 -700 -108 -190 -370 -745 -384 -813 -1 -6 -11
-31 -22 -55 -25 -53 -129 -339 -172 -472 -70 -221 -153 -529 -190 -705 -5 -25
-12 -56 -15 -70 -13 -66 -45 -228 -49 -255 -44 -266 -51 -314 -70 -495 -36
-337 -41 -433 -41 -860 1 -343 3 -438 20 -625 17 -203 24 -277 29 -305 3 -14
8 -47 11 -75 8 -66 15 -114 20 -145 3 -14 7 -43 10 -65 5 -33 35 -203 51 -291
2 -12 18 -81 34 -154 16 -73 32 -142 34 -154 28 -136 180 -650 206 -698 6 -10
10 -23 10 -30 0 -7 9 -35 20 -63 11 -27 53 -137 95 -242 97 -250 134 -331 275
-613 133 -266 349 -641 457 -791 18 -26 33 -51 33 -57 0 -6 3 -12 8 -14 4 -2
50 -64 102 -138 51 -74 97 -137 100 -140 3 -3 17 -21 30 -40 14 -19 32 -44 41
-55 10 -11 54 -67 99 -124 92 -117 87 -110 232 -276 232 -264 573 -602 768
-761 19 -16 40 -34 45 -40 16 -18 303 -245 390 -308 44 -33 96 -71 115 -86 66
-50 427 -287 455 -299 6 -2 21 -12 35 -21 162 -112 731 -401 1045 -530 11 -4
36 -15 55 -23 135 -57 396 -150 600 -214 150 -47 542 -152 620 -166 14 -3 61
-13 105 -22 44 -9 90 -19 103 -21 12 -2 48 -8 80 -14 31 -6 68 -12 82 -15 21
-5 68 -12 256 -40 17 -2 57 -7 89 -11 32 -3 68 -8 79 -10 11 -2 52 -6 91 -9
38 -3 84 -8 100 -10 122 -14 308 -20 685 -20 422 0 640 8 800 28 25 4 72 9
105 12 33 3 71 8 85 10 14 3 48 7 75 10 28 3 61 8 75 10 14 3 43 7 65 11 22 3
47 7 55 9 8 2 35 7 60 10 80 11 381 73 530 110 80 20 153 38 163 40 108 25
502 150 677 215 47 17 98 37 115 43 16 6 41 16 55 24 14 7 31 13 38 13 7 0 20
4 30 10 9 5 33 15 52 23 19 8 61 26 93 41 32 14 60 26 62 26 21 0 497 238 654
327 870 493 1596 1105 2230 1878 9 11 32 40 51 65 19 25 37 47 40 50 22 18
242 326 344 480 396 598 677 1173 901 1845 57 171 123 396 150 513 3 9 9 35
15 57 16 64 71 308 75 335 2 14 9 50 15 80 17 83 18 87 35 195 9 55 18 111 20
125 2 14 6 50 10 80 3 30 8 66 10 80 2 14 7 50 10 80 3 30 8 71 10 90 5 42 13
126 22 235 4 44 7 289 8 545 0 407 -4 546 -20 715 -12 125 -23 231 -31 285 -3
19 -9 67 -14 105 -17 118 -20 140 -25 165 -3 14 -10 54 -16 90 -13 86 -56 294
-80 400 -12 47 -22 92 -24 100 -24 112 -148 540 -182 630 -3 8 -7 20 -9 25 -2
10 -56 158 -107 296 -122 326 -359 813 -575 1174 -170 286 -467 710 -649 926
-230 272 -276 324 -443 494 -298 305 -585 557 -905 797 -88 65 -167 124 -175
131 -70 56 -458 302 -625 397 -176 100 -217 122 -395 211 -381 190 -705 321
-1110 451 -105 33 -338 101 -390 113 -8 1 -42 10 -75 18 -33 9 -71 18 -85 21
-14 3 -34 7 -45 10 -23 6 -259 56 -290 61 -11 2 -47 9 -80 14 -33 6 -69 13
-80 15 -11 2 -42 7 -68 10 -27 4 -59 9 -70 12 -29 5 -235 32 -312 39 -33 4
-71 8 -85 10 -14 2 -70 7 -125 10 -55 4 -116 9 -135 11 -40 6 -846 15 -851 9z
m-674 -4859 c33 -4 71 -9 85 -11 14 -3 43 -7 65 -11 22 -3 76 -15 120 -25 44
-11 87 -22 96 -24 146 -33 411 -148 568 -245 228 -142 347 -244 574 -495 l37
-40 27 34 c30 38 52 62 123 136 316 330 756 571 1188 650 15 3 36 7 47 9 22 4
82 12 165 23 89 11 388 7 485 -6 50 -7 99 -14 110 -16 185 -25 430 -107 640
-211 333 -167 638 -434 843 -739 26 -38 50 -71 55 -73 4 -2 7 -8 7 -12 0 -5
14 -33 32 -62 43 -73 110 -211 137 -283 13 -33 27 -69 31 -80 25 -57 83 -265
94 -335 31 -199 35 -243 36 -348 l1 -83 -1124 -1124 c-647 -647 -1133 -1125
-1143 -1126 -203 -10 -528 50 -774 142 -97 37 -345 156 -373 179 -7 6 -41 29
-77 51 -36 23 -66 45 -68 50 -2 5 -10 9 -17 9 -7 0 -15 3 -17 8 -1 4 -25 24
-53 45 -278 212 -572 602 -690 917 -16 44 -8 52 -740 -680 l-723 -723 -63 2
c-77 2 -126 6 -286 26 -42 6 -225 47 -303 69 -322 91 -668 298 -931 558 -278
274 -488 631 -590 1007 -56 204 -74 348 -74 591 0 208 9 310 41 460 96 454
326 864 661 1180 228 215 475 368 773 479 124 47 316 97 404 107 23 2 51 6 62
9 12 3 52 8 90 11 38 3 70 7 71 8 6 5 324 -2 378 -8z m-455 -4719 c0 -1 -342
-344 -759 -761 l-760 -759 1 514 0 514 246 248 247 247 512 0 c282 0 513 -1
513 -3z m2793 -756 c-417 -417 -760 -757 -762 -755 -2 2 -5 230 -5 506 l-1
503 250 253 249 252 514 0 514 0 -759 -759z"/>
<path d="M6370 9573 c-258 -31 -455 -108 -644 -252 -61 -46 -216 -197 -216
-210 0 -5 -11 -20 -24 -35 -41 -48 -112 -178 -149 -271 -63 -159 -80 -248 -81
-435 -1 -162 2 -195 24 -295 28 -126 102 -294 183 -415 62 -92 219 -250 311
-314 200 -138 490 -229 687 -217 8 1 289 276 625 611 608 609 609 611 610 653
3 110 -31 272 -85 414 -27 68 -130 256 -150 273 -3 3 -22 25 -43 50 -221 271
-559 436 -908 444 -63 1 -126 1 -140 -1z"/>
<path d="M9928 9575 c-2 -2 -31 -6 -66 -9 -339 -35 -694 -262 -879 -561 -63
-102 -130 -256 -149 -340 -91 -400 -10 -782 230 -1080 215 -267 564 -445 888
-454 l73 -2 611 613 c508 509 611 617 609 638 -29 358 -132 602 -343 818 -148
151 -298 248 -482 312 -71 24 -72 24 -180 46 -62 12 -303 27 -312 19z"/>
</g>
</svg>
